<svg width="32" height="32" viewBox="0 0 32 32" fill="none" xmlns="http://www.w3.org/2000/svg">
<path d="M26.3847 17.6893C26.5597 17.4959 26.6523 17.2418 26.6426 16.9812C26.6328 16.7205 26.5217 16.474 26.3328 16.2941C26.1439 16.1143 25.8922 16.0154 25.6314 16.0184C25.3706 16.0215 25.1213 16.1264 24.9367 16.3107L16.9981 24.6453V5C16.9981 4.73478 16.8927 4.48043 16.7052 4.29289C16.5176 4.10536 16.2633 4 15.9981 4C15.7329 4 15.4785 4.10536 15.291 4.29289C15.1034 4.48043 14.9981 4.73478 14.9981 5V24.6453L7.05807 16.3107C6.87348 16.1264 6.62421 16.0215 6.3634 16.0184C6.1026 16.0154 5.85091 16.1143 5.66201 16.2941C5.47311 16.474 5.36196 16.7205 5.35226 16.9812C5.34255 17.2418 5.43507 17.4959 5.61007 17.6893L15.0327 27.5827C15.2461 27.8067 15.5207 27.94 15.8061 27.9827C15.9338 28.0073 16.0652 28.0068 16.1927 27.9813C16.4872 27.9382 16.7587 27.7973 16.9634 27.5813L26.3847 17.6893Z" fill="#212121"/>
</svg>
